# xmcd
#
# Track frame offsets:
#	150
#	4095
#	16692
#	31973
#	51566
#	70793
#	85571
#	107956
#	127831
#	140173
#	170563
#	197033
#	210412
#
# Disc length: 3202 seconds
#
# Revision: 0
# Processed by: cddbd v1.5.1PL2 Copyright (c) Steve Scherf et al.
# Submitted via: dBpowerAMP V4.0
#
DISCID=ab0c800d
DTITLE=Various Artist - Goin' Down South.Vol.1
DYEAR=2001
DGENRE=Blues
TTITLE0=Memphis Round-Up(Jason Freeman)
TTITLE1=Poor Boy Long Way From Home(D.Evans and J.Kilzer )
TTITLE2=Goin' Down South (R.L.Burnside )
TTITLE3=Razor Blade (Daddy Mack Blues Band )
TTITLE4=Darling, Please Come Home (Billy Gibson )
TTITLE5=Last Chance Blues (Last Chance Jug Band )
TTITLE6=What Is Your Life (Junkyardmen )
TTITLE7=Just As I Am (Sandy Carroll )
TTITLE8=Get Right Church ( Lorette Velvette )
TTITLE9=I Ain't Found Out Yet ( Junkyardmen )
TTITLE10=Midnight Hour (Bobby Little )
TTITLE11=Shake'Em On Down (McCarty Hite Blues Project )
TTITLE12=Secondhand Store ( Blind  Mississippi Morris )
EXTD=Inside Sounds
EXTT0=
EXTT1=
EXTT2=
EXTT3=
EXTT4=
EXTT5=
EXTT6=
EXTT7=
EXTT8=
EXTT9=
EXTT10=
EXTT11=
EXTT12=
PLAYORDER=
